<svg width="90" height="90" viewBox="0 0 90 90" fill="none" xmlns="http://www.w3.org/2000/svg">
<path d="M45.1699 10C55.98 10 64.7431 18.7632 64.7432 29.5732C64.7432 37.6025 59.9081 44.5009 52.9912 47.5195C59.8204 48.8778 66.1398 51.9602 71.1631 56.4766C78.1018 62.7152 82 71.1772 82 80H8C8.00005 71.1772 11.8982 62.7152 18.8369 56.4766C23.9181 51.9081 30.3254 48.8073 37.2451 47.4736C30.3837 44.4314 25.5967 37.5622 25.5967 29.5732C25.5968 18.7633 34.36 10.0002 45.1699 10ZM45 49.7334C35.8857 49.7334 27.2005 52.9917 20.8428 58.708C15.3015 63.6902 11.9348 70.167 11.1689 77H78.8311C78.0652 70.167 74.6985 63.6902 69.1572 58.708C62.7995 52.9917 54.1143 49.7334 45 49.7334ZM45.1699 13C36.0169 13.0002 28.5968 20.4202 28.5967 29.5732C28.5967 38.7264 36.0168 46.1463 45.1699 46.1465C54.3232 46.1465 61.7432 38.7265 61.7432 29.5732C61.7431 20.4201 54.3231 13 45.1699 13Z" fill="black"/>
</svg>
