<svg width="90" height="90" viewBox="0 0 90 90" fill="none" xmlns="http://www.w3.org/2000/svg">
<path d="M15.8359 18.0352C22.9176 10.6548 34.3735 10.6548 41.4551 18.0352C41.5358 18.1193 41.617 18.207 41.708 18.3057L41.7275 18.3271L44.415 21.127L45.4971 22.2549L46.5791 21.127L49.5449 18.0371C56.6264 10.6569 68.0823 10.6575 75.1641 18.0381C82.2723 25.4468 82.2782 37.4786 75.1826 44.8955L75.1162 44.9619L72.1963 48.0029L71.1748 49.0664L71.1777 49.0693L45.498 75.833L16.0352 45.127L15.8506 44.9287L15.4961 44.5498C8.72176 37.109 8.83711 25.3297 15.8359 18.0352Z" stroke="black" stroke-width="3"/>
</svg>
