<?xml version="1.0" encoding="utf-8"?>
<!-- Generator: Adobe Illustrator 16.0.0, SVG Export Plug-In . SVG Version: 6.00 Build 0)  -->
<!DOCTYPE svg PUBLIC "-//W3C//DTD SVG 1.1//EN" "http://www.w3.org/Graphics/SVG/1.1/DTD/svg11.dtd">
<svg version="1.1" id="Layer_1" xmlns="http://www.w3.org/2000/svg" xmlns:xlink="http://www.w3.org/1999/xlink" x="0px" y="0px"
	 width="70px" height="15.654px" viewBox="265 142.13 70 15.654" enable-background="new 265 142.13 70 15.654"
	 xml:space="preserve">
<path d="M269.756,147.825c1.443,0,2.602,0.458,3.472,1.373s1.306,2.081,1.306,3.495c0,1.444-0.45,2.654-1.351,3.629
	c-0.901,0.975-2.029,1.463-3.383,1.463c-1.444,0-2.605-0.462-3.483-1.385S265,154.301,265,152.871c0-1.443,0.454-2.646,1.362-3.606
	C267.27,148.305,268.401,147.825,269.756,147.825z M269.511,148.562c-0.879,0-1.529,0.372-1.954,1.116
	c-0.424,0.745-0.636,1.66-0.636,2.747c0,1.191,0.283,2.259,0.849,3.204c0.565,0.945,1.317,1.418,2.255,1.418
	c0.878,0,1.53-0.372,1.954-1.116s0.636-1.653,0.636-2.725c0-1.176-0.283-2.244-0.848-3.204
	C271.2,149.042,270.448,148.562,269.511,148.562z"/>
<path d="M280.434,157.783c-0.313,0-0.864-0.111-1.652-0.334c-0.686-0.193-1.169-0.238-1.452-0.135c-0.045,0-0.104-0.066-0.179-0.2
	c-0.075-0.135-0.112-0.231-0.112-0.291c0.179-0.401,0.268-0.952,0.268-1.652v-10.003c0-0.595-0.037-0.982-0.112-1.161
	c-0.119-0.268-0.166-0.402-0.955-0.402c-0.015,0-0.026-0.048-0.034-0.146c-0.007-0.097-0.007-0.193,0-0.29
	c0.008-0.097,0.026-0.145,0.056-0.145c1.027-0.104,1.676-0.402,2.763-0.894c0.06,0,0.115,0.041,0.167,0.123s0.079,0.16,0.079,0.234
	c-0.165,0.477-0.246,1.124-0.246,1.943v4.399c0,0.164,0.022,0.246,0.067,0.246c0.014,0,0.037-0.007,0.067-0.022
	c0.297-0.223,0.729-0.48,1.295-0.771c0.566-0.29,1.035-0.435,1.407-0.435c1.25,0,2.244,0.48,2.981,1.44
	c0.737,0.96,1.105,2.007,1.105,3.138c0,1.474-0.529,2.735-1.585,3.784C283.306,157.259,281.997,157.783,280.434,157.783z
	 M280.791,149.165c-0.268,0-0.581,0.071-0.938,0.212c-0.357,0.142-0.596,0.272-0.714,0.391c-0.075,0.074-0.112,0.156-0.112,0.245
	v5.427c0,0.461,0.216,0.841,0.647,1.139s0.908,0.446,1.429,0.446c0.789,0,1.481-0.391,2.077-1.172
	c0.595-0.782,0.893-1.634,0.893-2.558c0-1.279-0.298-2.288-0.893-3.025C282.584,149.533,281.788,149.165,280.791,149.165z"/>
<path d="M291.468,147.869c0.327,0,0.74,0.042,1.239,0.123c0.499,0.082,0.845,0.138,1.039,0.167c0.148,0.67,0.238,1.217,0.268,2.185
	c0,0.075-0.075,0.112-0.223,0.112c-0.164,0-0.29-0.037-0.38-0.112c-0.134-0.506-0.385-0.834-0.632-1.157
	c-0.334-0.438-0.812-0.625-1.243-0.625c-0.521,0-0.916,0.13-1.184,0.391c-0.268,0.261-0.402,0.6-0.402,1.016
	c0,0.194,0.03,0.369,0.089,0.525s0.119,0.286,0.178,0.391c0.06,0.104,0.171,0.22,0.335,0.346c0.164,0.127,0.291,0.221,0.38,0.279
	c0.089,0.061,0.249,0.153,0.48,0.279c0.231,0.127,0.391,0.22,0.48,0.279c0.03,0.016,0.201,0.115,0.514,0.302
	s0.517,0.309,0.614,0.368c0.097,0.06,0.268,0.187,0.513,0.38s0.413,0.357,0.502,0.491s0.182,0.309,0.279,0.524
	c0.097,0.216,0.145,0.436,0.145,0.659c0,0.878-0.342,1.611-1.027,2.199c-0.685,0.588-1.488,0.882-2.411,0.882
	c-0.313,0-0.6-0.019-0.86-0.056c-0.261-0.037-0.569-0.101-0.927-0.19c-0.357-0.089-0.633-0.148-0.826-0.178
	c-0.089-0.238-0.175-0.61-0.257-1.117c-0.082-0.506-0.123-0.636-0.123-0.934c0.119-0.09,0.253-0.134,0.402-0.134
	c0.089,0,0.156,0.015,0.201,0.045c0.148,0.521,0.377,0.8,0.85,1.228c0.331,0.299,1.011,0.622,1.562,0.622
	c0.476,0,0.863-0.142,1.161-0.425c0.298-0.282,0.447-0.677,0.447-1.184c0-0.268-0.045-0.506-0.134-0.715
	c-0.089-0.208-0.246-0.401-0.469-0.58s-0.421-0.32-0.592-0.424c-0.171-0.104-0.428-0.25-0.771-0.436
	c-0.342-0.187-0.595-0.324-0.759-0.413c-1.132-0.655-1.697-1.452-1.697-2.39c0-0.804,0.324-1.459,0.971-1.965
	C289.849,148.123,290.604,147.869,291.468,147.869z"/>
<path d="M304.155,149.008c0,0.373-0.086,0.644-0.257,0.815c-0.172,0.171-0.369,0.257-0.592,0.257c-0.148,0-0.298-0.048-0.446-0.145
	c-0.149-0.097-0.31-0.223-0.48-0.379c-0.171-0.157-0.294-0.257-0.368-0.302c-0.417-0.282-0.842-0.424-1.273-0.424
	c-0.64,0-1.217,0.346-1.73,1.039c-0.514,0.692-0.771,1.589-0.771,2.691c0,1.25,0.335,2.191,1.005,2.824s1.541,0.949,2.613,0.949
	c0.923,0,1.712-0.38,2.367-1.139c0.015,0,0.033,0.011,0.056,0.033s0.048,0.06,0.078,0.111c0.029,0.053,0.044,0.108,0.044,0.168
	c0,0.119-0.044,0.253-0.134,0.402c-0.282,0.461-0.703,0.893-1.261,1.295c-0.559,0.401-1.225,0.603-1.999,0.603
	c-1.31,0-2.389-0.45-3.238-1.351s-1.273-1.954-1.273-3.16c0-1.533,0.588-2.825,1.764-3.874c1.176-1.049,2.397-1.574,3.662-1.574
	c0.805,0,1.475,0.179,2.011,0.536C304.08,148.532,304.155,148.74,304.155,149.008z"/>
<path d="M313.158,150.482c0-0.581-0.061-0.982-0.179-1.206c-0.164-0.297-0.174-0.446-0.844-0.446
	c-0.03-0.03-0.048-0.119-0.056-0.268c-0.008-0.148,0.012-0.253,0.056-0.313c1.221-0.045,1.833-0.193,2.651-0.447
	c0.045,0,0.098,0.071,0.157,0.212c0.059,0.142,0.089,0.249,0.089,0.324c-0.104,0.208-0.156,0.692-0.156,1.451v1.028v3.661
	c0,0.641,0.052,1.206,0.156,1.697c0.03,0.104,0.036,0.241,0.151,0.296c0.075,0.036,0.099,0.047,0.247,0.062s0.647,0.045,0.647,0.045
	c0.045,0.015,0.067,0.097,0.067,0.245c0,0.045-0.019,0.115-0.056,0.212c-0.038,0.098-0.079,0.139-0.123,0.146
	c-0.242,0.04-1.009,0.187-1.247,0.245c-0.238,0.061-0.466,0.12-0.682,0.179c-0.216,0.06-0.391,0.112-0.524,0.156l-0.179,0.045
	c-0.119,0-0.178-0.119-0.178-0.357v-1.027l-0.045-0.111c-0.343,0.372-0.823,0.711-1.44,1.017c-0.618,0.305-1.194,0.457-1.73,0.457
	c-1.861,0-2.792-1.48-2.792-4.443v-2.858c0-0.581-0.06-0.983-0.178-1.206c-0.164-0.297-0.174-0.446-0.844-0.446
	c-0.029-0.03-0.048-0.119-0.056-0.268s0.012-0.253,0.056-0.313c1.221-0.045,1.833-0.193,2.652-0.447c0.044,0,0.097,0.06,0.156,0.179
	s0.089,0.208,0.089,0.268c-0.104,0.208-0.156,0.722-0.156,1.541v0.96v2.322c0,1.191,0.179,2.065,0.536,2.624
	c0.357,0.558,0.923,0.837,1.697,0.837c0.476,0,0.938-0.138,1.384-0.413c0.447-0.275,0.67-0.547,0.67-0.815L313.158,150.482
	L313.158,150.482z"/>
<path d="M323.88,147.869c0.282,0,0.554,0.063,0.814,0.19s0.443,0.279,0.548,0.458c0.059,0.179,0.089,0.38,0.089,0.603
	c0,0.373-0.086,0.659-0.257,0.86c-0.171,0.201-0.331,0.301-0.48,0.301c-0.089,0-0.178-0.019-0.268-0.056s-0.201-0.104-0.335-0.201
	c-0.134-0.097-0.209-0.152-0.224-0.167c-0.268-0.179-0.543-0.268-0.826-0.268c-0.432,0-0.837,0.253-1.217,0.759
	s-0.569,0.923-0.569,1.25v3.439c0,0.863,0.037,1.414,0.112,1.652c0.029,0.104,0.293,0.189,0.792,0.257
	c0.499,0.066,0.563,0.081,0.856,0.101c0.074,0.005,0.07,0.167,0.078,0.323c0.007,0.156-0.02,0.265-0.078,0.324
	c-1.519-0.074-2.17-0.112-2.497-0.112c-0.149,0-0.712,0.038-2.229,0.112c-0.06-0.06-0.086-0.168-0.078-0.324
	c0.007-0.156,0.005-0.31,0.078-0.323c0.245-0.047,0.216-0.034,0.565-0.101c0.35-0.067,0.539-0.152,0.569-0.257
	c0.074-0.238,0.111-0.789,0.111-1.652v-4.153c0-0.596-0.037-0.983-0.111-1.161c-0.104-0.268-0.316-0.402-1.18-0.402
	c-0.03-0.029-0.048-0.119-0.056-0.268s0.011-0.253,0.056-0.313c1.266-0.178,2.059-0.491,2.922-0.938c0.06,0,0.115,0.045,0.167,0.134
	s0.078,0.164,0.078,0.223c-0.104,0.729-0.156,1.415-0.156,2.055c0,0.089,0.03,0.104,0.09,0.044c0.253-0.55,0.64-1.086,1.161-1.607
	C322.927,148.13,323.418,147.869,323.88,147.869z"/>
<path d="M331.319,147.892c0.64,0,1.206,0.298,1.697,0.893c0.491,0.596,0.736,1.317,0.736,2.166v4.601c0,0.7,0.23,1.05,0.692,1.05
	c0.193,0,0.182-0.046,0.465-0.291c0.045-0.039,0.09,0.06,0.09,0.179c0,0.164-0.053,0.343-0.107,0.446
	c-0.064,0.121-0.195,0.308-0.548,0.525c-0.354,0.219-0.651,0.301-0.859,0.301c-0.313,0-0.6-0.148-0.859-0.446
	c-0.261-0.297-0.429-0.632-0.503-1.005c-0.209,0.209-0.633,0.511-1.272,0.904c-0.641,0.395-1.132,0.592-1.474,0.592
	c-0.745,0-1.366-0.245-1.865-0.736s-0.748-1.102-0.748-1.831c0-0.432,0.115-0.812,0.347-1.139c0.23-0.328,0.487-0.544,0.771-0.647
	c2.53-0.908,3.832-1.377,3.907-1.407c0.119-0.045,0.193-0.101,0.224-0.168c0.029-0.066,0.044-0.196,0.044-0.391v-0.603
	c0-0.521-0.189-1.008-0.569-1.463c-0.379-0.454-0.829-0.681-1.351-0.681c-0.372,0-0.647,0.116-0.826,0.346
	c-0.179,0.231-0.313,0.577-0.401,1.039c-0.12,0.714-0.47,1.072-1.05,1.072c-0.224,0-0.406-0.097-0.547-0.29
	c-0.142-0.193-0.213-0.41-0.213-0.648c0-0.223,0.053-0.402,0.156-0.536c0.462-0.432,1.072-0.845,1.831-1.239
	C329.846,148.089,330.59,147.892,331.319,147.892z M330.113,156.601c0.357,0,0.771-0.119,1.239-0.357s0.703-0.425,0.703-0.559
	v-3.037c-1.146,0.343-1.839,0.559-2.076,0.647c-0.908,0.357-1.362,0.938-1.362,1.742c0,0.417,0.146,0.781,0.436,1.095
	C329.343,156.444,329.696,156.601,330.113,156.601z"/>
<path d="M270.475,145.373c-0.233-0.338-0.521-0.487-0.521-0.487c-0.387-0.235-0.808-0.104-0.936-0.055
	c-0.022,0.008-0.035,0.014-0.034,0.017c-0.227,0.104-0.368,0.347-0.327,0.605c0.026,0.166,0.131,0.311,0.281,0.385
	c0.281,0.139,0.582-0.02,0.855-0.097c0.118-0.033,0.239-0.044,0.36-0.03c0.137,0.017,0.365,0.092,0.402,0.116
	c0.036,0.024,0.174,0.004,0.174-0.022C270.731,145.743,270.475,145.373,270.475,145.373z"/>
</svg>
